<svg width="500" height="500" viewBox="0 0 500 500" fill="none" xmlns="http://www.w3.org/2000/svg">
<circle cx="250.171" cy="250.285" r="235.773" fill="white"/>
<path d="M227.455 498.935C139.442 490.803 65.251 439.864 25.2574 360.11C16.6442 342.934 10.1357 324.191 5.15496 302.219C4.08827 297.513 3.01486 291.975 2.76962 289.911C2.52438 287.848 2.16418 285.406 1.96919 284.485C-0.227005 274.114 -0.707226 238.88 1.14576 224.068C1.79057 218.914 2.53577 212.731 2.80174 210.33C3.41153 204.823 7.35415 187.43 10.0015 178.568C33.6593 99.3758 94.2283 37.259 172.486 11.9318C190.357 6.14817 201.549 3.80421 225.47 0.835026C233.967 -0.219632 261.575 -0.29145 272.747 0.712039C298.773 3.04962 329.392 10.8956 350.907 20.7396C368.512 28.7946 378.399 34.311 391.494 43.385C428.298 68.8895 455.129 99.9962 475.133 140.353C480.295 150.767 480.86 152.137 486.135 167.055C496.414 196.12 500.716 223.78 499.904 255.589C499.664 264.979 499.296 273.733 499.086 275.043C498.876 276.353 498.454 279.748 498.15 282.586C497.304 290.469 494.214 306.094 491.554 315.935C471.808 389.003 418.967 449.521 348.275 480.033C331.761 487.161 305.242 494.895 291.364 496.632C289.4 496.878 287.245 497.233 286.576 497.422C285.907 497.611 279.297 498.3 271.888 498.954C256.011 500.355 242.755 500.349 227.455 498.936V498.935ZM265.25 457.217C317.125 453.069 361.932 432.296 398.551 395.417C431.533 362.201 451.913 319.042 456.847 271.963C461.017 232.174 454.055 193.017 436.502 157.527C433.91 152.286 431.497 147.702 431.14 147.34C430.783 146.978 430.659 149.837 430.864 153.692C431.383 163.412 429.448 174.997 425.135 188.003C412.135 227.197 388.917 251.963 360.992 256.419C341.685 259.5 320.696 249.355 309.204 231.388C301.928 220.012 298.998 209.175 299.002 193.655C299.004 181.175 300.814 172.678 306.855 156.753C318.166 126.935 334.876 105.816 354.339 96.7416C361.943 93.1962 368.603 91.7649 377.305 91.8061C381.562 91.8264 385.045 91.7312 385.045 91.5949C385.045 91.0553 370.804 80.1739 365.198 76.4305C346.219 63.7572 323.952 53.9939 300.44 48.0362C270.431 40.4324 234.82 39.9865 204.432 46.8339C165.575 55.5896 131.121 74.5655 102.731 102.846C74.3845 131.083 54.186 168.481 46.1804 207.55C40.6509 234.535 40.7713 268.045 46.4912 294.1C48.4579 303.058 52.9487 317.672 56.4317 326.447C59.7124 334.713 70.5561 356.439 71.3926 356.422C71.6437 356.417 73.4076 353.417 75.3123 349.757C77.2169 346.096 80.8651 340.31 83.4194 336.899C85.9737 333.488 87.9074 330.54 87.7166 330.35C87.5258 330.159 85.24 330.455 82.637 331.007C76.6125 332.286 72.9283 331.582 69.9255 328.579C64.9324 323.585 65.9787 316.902 72.5152 312.038C77.2917 308.484 84.6971 300.846 92.6022 291.321C99.7617 282.694 108.942 270.587 108.59 270.235C108.441 270.086 101.721 272.087 93.6569 274.682C85.2311 277.392 77.5543 279.401 75.6086 279.404C66.5307 279.42 62.3646 266.449 69.7708 261.229C71.6313 259.918 115.264 245.239 126.244 242.231C131.625 240.756 134.388 241.354 137.746 244.718C141.022 248 141.786 251.978 140.193 257.458C138.025 264.917 126.294 282.874 112.366 300.055C108.648 304.64 105.603 308.637 105.598 308.937C105.594 309.237 106.751 309.595 108.17 309.731C110.206 309.928 112.176 309.042 117.499 305.535C121.21 303.091 126.751 299.642 129.811 297.871C137.356 293.504 159.498 282.586 160.808 282.586C162.792 282.586 162.651 281.307 159.916 274.494C152.912 257.049 153.455 237.927 161.59 215.46C173.707 181.998 189.972 160.715 210.772 151.104C237.867 138.583 267.315 150.558 280.577 179.489C288.941 197.737 289.365 218.93 281.817 241.582C271.25 273.295 254.184 296.052 233.721 305.719C224.409 310.118 218.082 311.407 208.004 310.958C196.51 310.447 187.467 307.07 177.924 299.726L173.292 296.161L172.417 298.082C171.775 299.492 167.684 301.905 157.025 307.16C149.04 311.097 140.266 315.751 137.526 317.501L132.545 320.683L135.291 324.675C140.55 332.322 141.646 336.449 141.615 348.491C141.59 357.792 141.32 360.015 139.572 365.298C136.726 373.898 132.468 381.09 126.44 387.481C122.019 392.169 112.221 399.69 108.632 401.152C106.423 402.051 125.151 417.338 138.829 425.801C165.64 442.387 193.775 452.432 223.485 456.024C241.153 458.159 250.217 458.418 265.25 457.217V457.217ZM100.579 381.754C107.737 377.659 113.954 371.295 117.183 364.76C120.844 357.351 122.199 349.039 120.779 342.694C119.791 338.277 116.951 334.198 114.863 334.198C113.298 334.198 102.56 345.606 98.5065 351.576C93.1878 359.41 89.6608 367.57 88.7317 374.193C87.951 379.757 88.007 380.239 89.711 382.632C91.2534 384.799 91.8665 385.101 93.8941 384.696C95.2008 384.434 98.2091 383.111 100.579 381.754ZM222.853 281.14C235.704 274.592 247.036 258.912 255.153 236.449C262.055 217.348 262.027 201.953 255.065 188.673C245.443 170.315 227.448 167.999 211.216 183.03C199.137 194.214 185.102 222.637 182.504 241.175C179.842 260.168 187.619 276.886 201.862 282.789C207.312 285.047 216.619 284.316 222.853 281.14H222.853ZM366.476 226.624C379.65 220.152 391.341 203.596 399.569 179.759C403.234 169.143 404.428 161.582 403.811 152.895C402.709 137.372 395.242 124.836 384.252 120.059C382.709 119.388 379.086 118.836 376.106 118.817C358.636 118.706 340.504 139.99 329.352 173.701C326.23 183.136 326.03 184.293 325.967 193.258C325.876 206.032 328.452 213.821 335.182 221.123C343.866 230.545 354.639 232.439 366.476 226.624V226.624Z" fill="#00B1FC"/>
</svg>
